<svg width="267" height="180" viewBox="0 0 267 180" fill="none" xmlns="http://www.w3.org/2000/svg">
<path d="M64 35H203C216.807 35 228 46.1929 228 60V120C228 133.807 216.807 145 203 145H64C50.1929 145 39 133.807 39 120V60C39 46.1929 50.1929 35 64 35Z" fill="white" stroke="#FF98B7" stroke-width="10"/>
<path d="M98.55 69.38C99.9967 70.1267 100.72 71.3167 100.72 72.95C100.72 73.93 100.37 74.8867 99.67 75.82C98.9233 76.8 97.9667 77.29 96.8 77.29C96.0067 77.29 95.2133 77.08 94.42 76.66C92.1333 75.5867 89.66 75.05 87 75.05C83.7333 75.05 80.8867 75.75 78.46 77.15C76.0333 78.5033 74.1667 80.44 72.86 82.96C71.5533 85.4333 70.9 88.28 70.9 91.5C70.9 97.0067 72.37 101.183 75.31 104.03C78.2967 106.877 82.1933 108.3 87 108.3C89.8467 108.3 92.32 107.763 94.42 106.69C95.26 106.317 96.0067 106.13 96.66 106.13C97.8733 106.13 98.9 106.643 99.74 107.67C100.44 108.557 100.79 109.513 100.79 110.54C100.79 111.287 100.603 111.963 100.23 112.57C99.8567 113.177 99.32 113.643 98.62 113.97C94.98 115.79 91.1067 116.7 87 116.7C82.4267 116.7 78.2267 115.743 74.4 113.83C70.5733 111.87 67.5167 109 65.23 105.22C62.9433 101.44 61.8 96.8667 61.8 91.5C61.8 86.74 62.8733 82.47 65.02 78.69C67.2133 74.91 70.2233 71.97 74.05 69.87C77.8767 67.7233 82.1933 66.65 87 66.65C91.1533 66.65 95.0033 67.56 98.55 69.38ZM153.217 91.5C153.217 96.12 152.19 100.367 150.137 104.24C148.083 108.067 145.237 111.1 141.597 113.34C138.003 115.58 133.943 116.7 129.417 116.7C124.89 116.7 120.807 115.58 117.167 113.34C113.573 111.1 110.75 108.067 108.697 104.24C106.69 100.367 105.687 96.12 105.687 91.5C105.687 86.88 106.69 82.6567 108.697 78.83C110.75 74.9567 113.573 71.9 117.167 69.66C120.807 67.42 124.89 66.3 129.417 66.3C133.943 66.3 138.003 67.42 141.597 69.66C145.237 71.9 148.083 74.9567 150.137 78.83C152.19 82.6567 153.217 86.88 153.217 91.5ZM144.117 91.5C144.117 88.3733 143.487 85.55 142.227 83.03C140.967 80.4633 139.217 78.4333 136.977 76.94C134.737 75.4467 132.217 74.7 129.417 74.7C126.57 74.7 124.027 75.4467 121.787 76.94C119.593 78.3867 117.867 80.3933 116.607 82.96C115.393 85.5267 114.787 88.3733 114.787 91.5C114.787 94.6267 115.393 97.4733 116.607 100.04C117.867 102.607 119.593 104.637 121.787 106.13C124.027 107.577 126.57 108.3 129.417 108.3C132.217 108.3 134.737 107.553 136.977 106.06C139.217 104.567 140.967 102.56 142.227 100.04C143.487 97.4733 144.117 94.6267 144.117 91.5ZM182.252 67C186.639 67 190.395 68.0967 193.522 70.29C196.695 72.4367 199.099 75.3767 200.732 79.11C202.412 82.7967 203.252 86.9267 203.252 91.5C203.252 96.0733 202.412 100.227 200.732 103.96C199.099 107.647 196.695 110.587 193.522 112.78C190.395 114.927 186.639 116 182.252 116H165.522C164.309 116 163.282 115.603 162.442 114.81C161.649 113.97 161.252 112.943 161.252 111.73V71.27C161.252 70.0567 161.649 69.0533 162.442 68.26C163.282 67.42 164.309 67 165.522 67H182.252ZM181.552 107.95C185.752 107.95 188.902 106.41 191.002 103.33C193.102 100.203 194.152 96.26 194.152 91.5C194.152 86.74 193.079 82.82 190.932 79.74C188.832 76.6133 185.705 75.05 181.552 75.05H170.002V107.95H181.552Z" fill="#FF98B7"/>
</svg>
